<svg id="Layer_1" data-name="Layer 1" xmlns="http://www.w3.org/2000/svg" viewBox="0 0 45 39.16"><defs><style>.cls-1{fill:#fff;}</style></defs><title>VCX UI</title><path class="cls-1" d="M0,35.6a3.55,3.55,0,0,0,.88,2.66,3.5,3.5,0,0,0,2.6.88l5.07,0,7,0,3.43,0c2.73,0,5.46,0,8.19,0h.23a3.71,3.71,0,0,0,2.76-.94,4,4,0,0,0,.93-3c-.06-4-.06-8.23,0-12.89a3.88,3.88,0,0,0-.95-2.85,3.81,3.81,0,0,0-2.8-1H3.72a3.73,3.73,0,0,0-2.77,1A3.86,3.86,0,0,0,0,22.4C.06,26.24.06,30.31,0,35.6ZM1.82,22.37a2.18,2.18,0,0,1,.43-1.58,2.06,2.06,0,0,1,1.47-.43H27.33a2.11,2.11,0,0,1,1.5.44,2.13,2.13,0,0,1,.43,1.56c-.05,4.66-.05,8.89,0,12.93A2.34,2.34,0,0,1,28.86,37a2.08,2.08,0,0,1-1.46.39h-.18c-2.75-.08-5.5-.06-8.26-.05l-3.41,0-7,0c-1.66,0-3.33,0-5,0h0A2,2,0,0,1,2.18,37a2,2,0,0,1-.35-1.36C1.88,30.31,1.88,26.23,1.82,22.37Z"/><path class="cls-1" d="M17.39,8.57a8.51,8.51,0,0,0-2.54-6A8.51,8.51,0,0,0,8.9,0a8.35,8.35,0,0,0-6,2.57A8.7,8.7,0,0,0,.49,8.74a8.34,8.34,0,0,0,8.42,8.17H9A8.58,8.58,0,0,0,17.39,8.57Zm-1.81,0A6.74,6.74,0,0,1,9,15.09L8.91,16v-.91A6.53,6.53,0,0,1,2.31,8.7,6.82,6.82,0,0,1,4.25,3.84a6.41,6.41,0,0,1,4.59-2h0a6.74,6.74,0,0,1,4.72,2.05A6.71,6.71,0,0,1,15.58,8.55Z"/><path class="cls-1" d="M28.85,10.61A5.88,5.88,0,0,0,23.09,4.8h-.15a6.09,6.09,0,0,0-5.7,5.84,5.93,5.93,0,0,0,5.9,5.74h.07A5.7,5.7,0,0,0,28.85,10.61Zm-1.82,0a3.89,3.89,0,0,1-3.84,4l-.05.91v-.91a4.13,4.13,0,0,1-4.08-3.93,4.33,4.33,0,0,1,3.93-4h0A4.1,4.1,0,0,1,27,10.61Z"/><path class="cls-1" d="M32.31,28.59c0,1.65.41,3.85,1.81,4.59a32.05,32.05,0,0,0,6.62,2.3c1,.27,2,.54,3.09.87L45,36.7V21.09l-1.16.34c-1.13.32-2.2.6-3.23.86a35,35,0,0,0-6.14,1.95C33.17,24.84,32.37,26.47,32.31,28.59Zm1.82,0c0-1.37.47-2.44,1.1-2.74a33,33,0,0,1,5.83-1.84c.68-.18,1.39-.35,2.12-.55V34.26l-2-.53A31.05,31.05,0,0,1,35,31.58,3.86,3.86,0,0,1,34.13,28.63Z"/></svg>