<svg id="Layer_1" data-name="Layer 1" xmlns="http://www.w3.org/2000/svg" viewBox="0 0 45.88 44.14"><defs><style>.cls-1{fill:#fff;}.cls-2{fill:none;stroke:#fff;stroke-miterlimit:10;stroke-width:2.83px;}</style></defs><title>VCX UI</title><path class="cls-1" d="M0,35.42a3.51,3.51,0,0,0,.87,2.63,3.45,3.45,0,0,0,2.59.89c1.75,0,3.4,0,5,0H18.88c2.72,0,5.43,0,8.15,0h.22A3.67,3.67,0,0,0,30,38a3.85,3.85,0,0,0,.92-3c-.05-4-.05-8.19,0-12.82a3.84,3.84,0,0,0-1-2.84,3.77,3.77,0,0,0-2.78-1H3.7a3.7,3.7,0,0,0-2.75,1A3.81,3.81,0,0,0,0,22.28C.06,26.1.06,30.15,0,35.42Zm1.8-13.16a2.22,2.22,0,0,1,.42-1.58,2.08,2.08,0,0,1,1.47-.43H27.19a2.09,2.09,0,0,1,1.49.43,2.16,2.16,0,0,1,.43,1.55c-.05,4.64-.05,8.85,0,12.86a2.3,2.3,0,0,1-.4,1.66,2.07,2.07,0,0,1-1.46.4h-.17c-2.74-.09-5.47-.07-8.21,0H8.52c-1.66,0-3.31,0-5,0h0a1.93,1.93,0,0,1-1.38-.35,1.9,1.9,0,0,1-.35-1.35C1.87,30.15,1.87,26.09,1.81,22.26Z"/><path class="cls-1" d="M17.3,8.52a8.45,8.45,0,0,0-2.53-5.94A8.46,8.46,0,0,0,8.85,0,8.24,8.24,0,0,0,2.93,2.56,8.6,8.6,0,0,0,.49,8.7a8.29,8.29,0,0,0,8.38,8.12h.07A8.54,8.54,0,0,0,17.3,8.52Zm-1.81,0A6.69,6.69,0,0,1,8.93,15l-.06.9V15A6.48,6.48,0,0,1,2.3,8.66,6.75,6.75,0,0,1,4.23,3.82a6.39,6.39,0,0,1,4.56-2h0a6.63,6.63,0,0,1,4.68,2A6.63,6.63,0,0,1,15.49,8.51Z"/><path class="cls-1" d="M28.7,10.55A5.84,5.84,0,0,0,23,4.78h-.15a6.07,6.07,0,0,0-5.67,5.81A5.89,5.89,0,0,0,23,16.3h.07A5.67,5.67,0,0,0,28.7,10.55Zm-1.81,0a3.87,3.87,0,0,1-3.82,3.94L23,15.4v-.91A4.1,4.1,0,0,1,19,10.58a4.29,4.29,0,0,1,3.91-4h0A4.07,4.07,0,0,1,26.89,10.55Z"/><path class="cls-1" d="M32.14,28.44c0,1.64.41,3.83,1.8,4.57a31.75,31.75,0,0,0,6.59,2.28c1,.27,2,.54,3.07.86l1.16.36V21l-1.15.34c-1.12.32-2.19.59-3.21.85a34.65,34.65,0,0,0-6.11,1.95C33,24.71,32.2,26.33,32.14,28.44Zm1.81,0c0-1.36.47-2.43,1.1-2.72a32.56,32.56,0,0,1,5.79-1.84c.69-.17,1.39-.35,2.12-.55V34.08l-2-.53a30.05,30.05,0,0,1-6.21-2.14C34.42,31.22,33.91,30.06,34,28.48Z"/><line class="cls-2" x1="45" y1="9.2" x2="2.23" y2="43.02"/></svg>