<svg id="Layer_1" data-name="Layer 1" xmlns="http://www.w3.org/2000/svg" viewBox="0 0 45 37.97"><defs><style>.cls-1{fill:#fff;}</style></defs><title>VCX UI</title><path class="cls-1" d="M26.93.09a.85.85,0,0,0-.88.07L12,10.47H2.86a2.89,2.89,0,0,0-2,.8,2.69,2.69,0,0,0-.85,2V24.73a2.69,2.69,0,0,0,.85,2,2.89,2.89,0,0,0,2,.8H12L26.05,37.81a.88.88,0,0,0,.5.16.85.85,0,0,0,.85-.85V.85A.86.86,0,0,0,26.93.09ZM25.7,35.45,12.75,26a.87.87,0,0,0-.51-.17H2.86A1.2,1.2,0,0,1,2,25.48a1,1,0,0,1-.33-.75V13.24A1,1,0,0,1,2,12.5a1.17,1.17,0,0,1,.84-.33h9.38a.87.87,0,0,0,.51-.17l13-9.48Z"/><path class="cls-1" d="M44.15,18.14H38.49V12.48a.85.85,0,1,0-1.69,0v5.66H31.14a.85.85,0,1,0,0,1.69H36.8v5.66a.85.85,0,1,0,1.69,0V19.83h5.66a.85.85,0,1,0,0-1.69Z"/></svg>